<svg xmlns="http://www.w3.org/2000/svg" xmlns:xlink="http://www.w3.org/1999/xlink" width="500" zoomAndPan="magnify" viewBox="0 0 375 374.999991" height="500" preserveAspectRatio="xMidYMid meet" version="1.0"><defs><g/><clipPath id="96a542b7fb"><path d="M 67.332031 181.722656 L 307.667969 181.722656 L 307.667969 273.511719 L 67.332031 273.511719 Z M 67.332031 181.722656 " clip-rule="nonzero"/></clipPath><clipPath id="9831d0d76e"><path d="M 0.332031 0.722656 L 240.667969 0.722656 L 240.667969 92.511719 L 0.332031 92.511719 Z M 0.332031 0.722656 " clip-rule="nonzero"/></clipPath><clipPath id="20a82a4fdb"><rect x="0" width="241" y="0" height="93"/></clipPath><clipPath id="4905d7aee1"><path d="M 67.332031 181.722656 L 307.332031 181.722656 L 307.332031 273.222656 L 67.332031 273.222656 Z M 67.332031 181.722656 " clip-rule="nonzero"/></clipPath><clipPath id="2a0b031995"><path d="M 128.300781 102 L 246.800781 102 L 246.800781 222.238281 L 128.300781 222.238281 Z M 128.300781 102 " clip-rule="nonzero"/></clipPath><clipPath id="533f6761b5"><path d="M 236.347656 111.023438 L 257.347656 111.023438 L 257.347656 132 L 236.347656 132 Z M 236.347656 111.023438 " clip-rule="nonzero"/></clipPath><clipPath id="e2b22b0138"><rect x="0" width="187" y="0" height="29"/></clipPath><clipPath id="876e228c51"><path d="M 102.644531 199.066406 L 123.644531 199.066406 L 123.644531 220 L 102.644531 220 Z M 102.644531 199.066406 " clip-rule="nonzero"/></clipPath></defs><rect x="-37.5" width="450" fill="#ffffff" y="-37.499999" height="449.999989" fill-opacity="1"/><rect x="-37.5" width="450" fill="#c0d8c0" y="-37.499999" height="449.999989" fill-opacity="1"/><g clip-path="url(#96a542b7fb)"><g transform="matrix(1, 0, 0, 1, 67, 181)"><g clip-path="url(#20a82a4fdb)"><g clip-path="url(#9831d0d76e)"><path fill="#fdf5ff" d="M 0.332031 0.722656 L 240.554688 0.722656 L 240.554688 92.511719 L 0.332031 92.511719 Z M 0.332031 0.722656 " fill-opacity="1" fill-rule="nonzero"/></g></g></g></g><g clip-path="url(#4905d7aee1)"><path stroke-linecap="butt" transform="matrix(0.75, 0, 0, 0.75, 67.333586, 181.723874)" fill="none" stroke-linejoin="miter" d="M -0.00207364 -0.00162429 L 320.430239 -0.00162429 L 320.430239 122.373384 L -0.00207364 122.373384 Z M -0.00207364 -0.00162429 " stroke="#000000" stroke-width="4" stroke-opacity="1" stroke-miterlimit="4"/></g><path fill="#dd4a48" d="M 245.863281 144.109375 L 245.863281 209.089844 C 245.863281 215.902344 240.339844 221.425781 233.527344 221.425781 L 141.476562 221.425781 C 134.664062 221.425781 129.140625 215.902344 129.140625 209.089844 L 129.140625 144.109375 L 175.199219 107.261719 C 182.390625 101.507812 192.609375 101.507812 199.800781 107.261719 Z M 245.863281 144.109375 " fill-opacity="1" fill-rule="nonzero"/><path fill="#fdf5ff" d="M 192.203125 138.46875 C 193.640625 139.90625 192.804688 143.261719 190.410156 145.652344 C 188.019531 148.042969 184.664062 148.882812 183.226562 147.445312 C 181.789062 146.011719 182.628906 142.652344 185.023438 140.261719 C 186.292969 138.992188 187.859375 138.113281 189.328125 137.847656 C 189.570312 137.800781 189.882812 137.761719 190.222656 137.761719 C 190.882812 137.761719 191.652344 137.910156 192.203125 138.46875 Z M 227.511719 109.609375 L 227.511719 158.789062 L 200.695312 180.242188 C 192.980469 186.410156 182.023438 186.410156 174.308594 180.242188 L 147.484375 158.785156 L 147.484375 109.609375 Z M 208.871094 141.976562 C 208.621094 138.46875 207.335938 134.988281 205.25 132.179688 C 200.613281 125.933594 192.484375 122.796875 185.023438 124.367188 C 178.4375 125.753906 172.5625 130.78125 170.730469 136.59375 C 167.488281 146.875 172.171875 158.25 181.386719 162.492188 C 183.949219 163.671875 186.691406 164.253906 189.40625 164.253906 C 193.03125 164.253906 196.605469 163.21875 199.625 161.191406 C 200.453125 160.632812 200.796875 159.542969 200.335938 158.660156 C 199.792969 157.617188 198.484375 157.308594 197.539062 157.949219 C 193.355469 160.792969 187.78125 161.191406 182.996094 158.992188 C 175.511719 155.546875 171.734375 146.21875 174.402344 137.753906 C 175.839844 133.207031 180.53125 129.25 185.816406 128.136719 C 191.742188 126.890625 198.460938 129.496094 202.15625 134.472656 C 203.808594 136.703125 204.828125 139.460938 205.027344 142.246094 C 205.199219 144.675781 204.824219 147.882812 203.265625 149.605469 C 202.503906 150.449219 201.4375 150.738281 200.339844 150.402344 C 198.980469 149.984375 197.875 148.390625 197.34375 147.15625 C 195.777344 143.519531 197.371094 139.527344 198.128906 137.980469 C 198.8125 136.582031 197.585938 135.058594 196.078125 135.277344 C 195.292969 135.390625 195.144531 135.761719 194.398438 135.390625 C 193.726562 135.0625 193.1875 134.484375 192.4375 134.246094 C 191.214844 133.855469 189.898438 133.828125 188.640625 134.054688 C 186.386719 134.460938 184.132812 135.699219 182.296875 137.539062 C 178.25 141.582031 177.464844 147.132812 180.5 150.171875 C 181.746094 151.417969 183.410156 152.019531 185.222656 152.019531 C 187.835938 152.019531 190.746094 150.765625 193.140625 148.375 C 193.324219 148.191406 193.628906 148.25 193.726562 148.488281 C 193.75 148.554688 193.777344 148.617188 193.804688 148.679688 C 194.242188 149.691406 195.921875 153.074219 199.207031 154.085938 C 201.71875 154.855469 204.367188 154.128906 206.121094 152.191406 C 209.027344 148.980469 209.011719 143.976562 208.871094 141.976562 Z M 208.871094 141.976562 " fill-opacity="1" fill-rule="nonzero"/><g clip-path="url(#2a0b031995)"><path fill="#000000" d="M 246.699219 144.078125 C 246.695312 144.0625 246.699219 144.046875 246.695312 144.03125 C 246.695312 144.011719 246.691406 143.992188 246.6875 143.972656 C 246.683594 143.953125 246.679688 143.933594 246.675781 143.914062 C 246.671875 143.898438 246.667969 143.886719 246.664062 143.871094 C 246.660156 143.851562 246.652344 143.835938 246.644531 143.816406 C 246.636719 143.796875 246.628906 143.777344 246.621094 143.757812 C 246.613281 143.746094 246.609375 143.734375 246.605469 143.71875 C 246.597656 143.703125 246.585938 143.6875 246.574219 143.671875 C 246.5625 143.652344 246.550781 143.632812 246.535156 143.613281 C 246.527344 143.605469 246.523438 143.59375 246.515625 143.585938 C 246.515625 143.582031 246.515625 143.582031 246.511719 143.582031 C 246.503906 143.566406 246.488281 143.558594 246.480469 143.546875 C 246.460938 143.527344 246.445312 143.507812 246.425781 143.492188 C 246.414062 143.480469 246.402344 143.46875 246.390625 143.460938 C 246.390625 143.457031 246.386719 143.457031 246.386719 143.453125 L 228.351562 129.027344 L 228.351562 109.609375 C 228.351562 109.144531 227.972656 108.769531 227.511719 108.769531 L 203.03125 108.769531 L 201.214844 107.316406 C 197.335938 104.214844 192.46875 102.507812 187.5 102.507812 C 182.535156 102.507812 177.664062 104.214844 173.785156 107.316406 L 171.96875 108.769531 L 147.484375 108.769531 C 147.023438 108.769531 146.648438 109.144531 146.648438 109.609375 L 146.648438 129.027344 L 128.617188 143.453125 C 128.613281 143.457031 128.613281 143.457031 128.613281 143.457031 C 128.601562 143.46875 128.589844 143.480469 128.578125 143.492188 C 128.558594 143.507812 128.539062 143.527344 128.519531 143.550781 C 128.511719 143.558594 128.5 143.570312 128.492188 143.578125 C 128.488281 143.582031 128.488281 143.582031 128.484375 143.585938 C 128.476562 143.59375 128.472656 143.605469 128.46875 143.613281 C 128.453125 143.632812 128.4375 143.65625 128.425781 143.679688 C 128.414062 143.691406 128.40625 143.703125 128.398438 143.71875 C 128.390625 143.730469 128.386719 143.742188 128.382812 143.753906 C 128.371094 143.777344 128.363281 143.800781 128.355469 143.824219 C 128.347656 143.839844 128.34375 143.855469 128.335938 143.871094 C 128.332031 143.882812 128.332031 143.898438 128.328125 143.910156 C 128.320312 143.933594 128.316406 143.957031 128.316406 143.980469 C 128.3125 143.996094 128.308594 144.011719 128.304688 144.027344 C 128.304688 144.042969 128.304688 144.058594 128.304688 144.078125 C 128.304688 144.085938 128.300781 144.097656 128.300781 144.109375 L 128.300781 208.195312 C 128.300781 215.953125 134.613281 222.261719 142.367188 222.261719 L 232.632812 222.261719 C 240.390625 222.261719 246.699219 215.953125 246.699219 208.195312 L 246.699219 144.109375 C 246.699219 144.097656 246.699219 144.089844 246.699219 144.078125 Z M 228.351562 131.171875 L 244.519531 144.109375 L 228.351562 157.042969 Z M 174.832031 108.628906 C 178.414062 105.761719 182.914062 104.183594 187.5 104.183594 C 192.085938 104.183594 196.585938 105.761719 200.167969 108.628906 L 200.347656 108.769531 L 174.652344 108.769531 Z M 148.324219 110.449219 L 226.671875 110.449219 L 226.671875 158.386719 L 224.851562 159.84375 L 200.167969 179.589844 C 196.8125 182.273438 192.648438 183.828125 188.359375 184.011719 C 188.269531 184.015625 188.179688 184.015625 188.089844 184.019531 C 187.894531 184.023438 187.699219 184.03125 187.5 184.03125 C 186.980469 184.03125 186.460938 184.007812 185.941406 183.96875 C 185.789062 183.957031 185.632812 183.941406 185.480469 183.925781 C 182.207031 183.59375 179.039062 182.46875 176.292969 180.648438 C 175.792969 180.316406 175.304688 179.964844 174.832031 179.589844 L 148.324219 158.382812 Z M 146.648438 131.175781 L 146.648438 157.039062 L 130.484375 144.109375 Z M 129.976562 145.855469 L 146.957031 159.4375 C 146.960938 159.4375 146.960938 159.441406 146.960938 159.441406 L 166.875 175.371094 L 168.972656 177.046875 L 132.335938 215.457031 C 130.855469 213.414062 129.976562 210.90625 129.976562 208.195312 Z M 232.632812 220.585938 L 142.367188 220.585938 C 138.847656 220.585938 135.671875 219.109375 133.414062 216.746094 C 133.429688 216.730469 133.449219 216.722656 133.464844 216.703125 L 170.289062 178.101562 L 173.785156 180.898438 C 177.664062 184 182.535156 185.707031 187.5 185.707031 C 188.121094 185.707031 188.742188 185.679688 189.359375 185.628906 C 193.671875 185.257812 197.824219 183.613281 201.21875 180.898438 L 204.714844 178.101562 L 241.539062 216.703125 C 241.554688 216.722656 241.570312 216.730469 241.585938 216.746094 C 239.332031 219.109375 236.152344 220.585938 232.632812 220.585938 Z M 245.023438 208.195312 C 245.023438 210.90625 244.144531 213.414062 242.664062 215.457031 L 206.027344 177.050781 L 245.023438 145.855469 Z M 190.222656 136.925781 C 189.882812 136.925781 189.53125 136.957031 189.179688 137.019531 C 187.546875 137.316406 185.816406 138.28125 184.425781 139.667969 C 183.164062 140.933594 182.257812 142.472656 181.875 144.011719 C 181.460938 145.671875 181.734375 147.140625 182.632812 148.039062 C 183.257812 148.664062 184.15625 148.988281 185.207031 148.988281 C 185.667969 148.988281 186.15625 148.925781 186.664062 148.796875 C 188.199219 148.414062 189.742188 147.507812 191.003906 146.246094 C 193.757812 143.492188 194.582031 139.65625 192.796875 137.875 C 192.175781 137.253906 191.285156 136.925781 190.222656 136.925781 Z M 189.816406 145.058594 C 188.78125 146.09375 187.484375 146.863281 186.257812 147.171875 C 185.179688 147.441406 184.289062 147.324219 183.820312 146.855469 C 183.347656 146.382812 183.230469 145.496094 183.5 144.417969 C 183.808594 143.1875 184.578125 141.890625 185.613281 140.855469 C 186.765625 139.703125 188.171875 138.90625 189.476562 138.671875 C 189.734375 138.625 189.984375 138.601562 190.222656 138.601562 C 190.839844 138.601562 191.308594 138.757812 191.613281 139.0625 C 192.585938 140.035156 192.011719 142.867188 189.816406 145.058594 Z M 181.035156 163.253906 C 183.644531 164.457031 186.539062 165.089844 189.40625 165.089844 C 193.277344 165.089844 196.972656 163.980469 200.09375 161.886719 C 201.304688 161.070312 201.730469 159.515625 201.078125 158.269531 C 200.710938 157.566406 200.0625 157.050781 199.296875 156.859375 C 198.535156 156.667969 197.71875 156.8125 197.066406 157.253906 C 193.125 159.933594 187.867188 160.308594 183.347656 158.230469 C 176.238281 154.957031 172.660156 146.074219 175.203125 138.003906 C 176.550781 133.734375 180.984375 130.011719 185.988281 128.960938 C 191.605469 127.777344 197.976562 130.25 201.480469 134.976562 C 203.042969 137.074219 204.003906 139.679688 204.1875 142.304688 C 204.339844 144.457031 204.027344 147.511719 202.644531 149.042969 C 202.101562 149.640625 201.371094 149.839844 200.585938 149.597656 C 199.570312 149.289062 198.613281 147.980469 198.113281 146.820312 C 196.683594 143.507812 198.175781 139.792969 198.882812 138.347656 C 199.328125 137.433594 199.238281 136.398438 198.640625 135.578125 C 198.023438 134.730469 196.996094 134.296875 195.960938 134.445312 C 195.613281 134.496094 195.363281 134.582031 195.179688 134.648438 C 194.949219 134.730469 194.949219 134.730469 194.769531 134.640625 C 194.550781 134.53125 194.328125 134.375 194.09375 134.210938 C 193.699219 133.9375 193.253906 133.625 192.691406 133.445312 C 191.410156 133.039062 189.957031 132.964844 188.492188 133.230469 C 186.070312 133.667969 183.660156 134.988281 181.703125 136.945312 C 179.617188 139.027344 178.273438 141.574219 177.910156 144.113281 C 177.539062 146.742188 178.246094 149.105469 179.910156 150.765625 C 181.277344 152.132812 183.117188 152.859375 185.222656 152.859375 C 187.964844 152.859375 190.847656 151.621094 193.234375 149.445312 C 193.917969 150.859375 195.71875 153.890625 198.960938 154.886719 C 201.785156 155.753906 204.765625 154.9375 206.742188 152.753906 C 209.867188 149.304688 209.855469 144.027344 209.707031 141.914062 C 209.445312 138.25 208.101562 134.613281 205.921875 131.679688 C 201.097656 125.175781 192.628906 121.910156 184.851562 123.546875 C 177.984375 124.992188 171.847656 130.253906 169.929688 136.34375 C 166.5625 147.019531 171.441406 158.839844 181.035156 163.253906 Z M 171.527344 136.847656 C 173.273438 131.308594 178.894531 126.515625 185.195312 125.1875 C 186.421875 124.929688 187.671875 124.804688 188.914062 124.804688 C 194.921875 124.804688 200.894531 127.71875 204.578125 132.679688 C 206.570312 135.359375 207.796875 138.683594 208.035156 142.035156 C 208.167969 143.929688 208.1875 148.660156 205.5 151.628906 C 203.964844 153.324219 201.648438 153.957031 199.453125 153.28125 C 196.511719 152.378906 194.976562 149.277344 194.574219 148.347656 C 194.550781 148.289062 194.527344 148.234375 194.5 148.171875 C 194.351562 147.800781 194.027344 147.53125 193.632812 147.453125 C 193.238281 147.371094 192.832031 147.496094 192.546875 147.78125 C 190.386719 149.941406 187.71875 151.179688 185.222656 151.179688 C 183.570312 151.179688 182.140625 150.625 181.09375 149.578125 C 179.816406 148.300781 179.273438 146.441406 179.570312 144.351562 C 179.882812 142.167969 181.058594 139.960938 182.886719 138.128906 C 184.605469 136.410156 186.703125 135.257812 188.789062 134.878906 C 189.988281 134.664062 191.160156 134.71875 192.179688 135.042969 C 192.503906 135.148438 192.808594 135.359375 193.132812 135.585938 C 193.410156 135.78125 193.695312 135.980469 194.027344 136.144531 C 194.839844 136.542969 195.355469 136.363281 195.734375 136.230469 C 195.882812 136.179688 196.015625 136.132812 196.199219 136.105469 C 196.699219 136.035156 197.089844 136.296875 197.285156 136.5625 C 197.390625 136.710938 197.617188 137.113281 197.375 137.609375 C 196.566406 139.261719 194.867188 143.53125 196.574219 147.484375 C 197.207031 148.953125 198.464844 150.703125 200.09375 151.203125 C 201.492188 151.632812 202.910156 151.246094 203.886719 150.167969 C 206.074219 147.753906 205.953125 143.449219 205.863281 142.1875 C 205.652344 139.246094 204.578125 136.328125 202.828125 133.976562 C 198.945312 128.742188 191.878906 126.003906 185.644531 127.316406 C 180.074219 128.492188 175.125 132.679688 173.605469 137.5 C 170.8125 146.359375 174.785156 156.136719 182.648438 159.753906 C 187.695312 162.078125 193.582031 161.652344 198.011719 158.640625 C 198.265625 158.46875 198.585938 158.410156 198.886719 158.488281 C 199.191406 158.5625 199.441406 158.761719 199.589844 159.046875 C 199.84375 159.527344 199.652344 160.160156 199.15625 160.492188 C 196.3125 162.402344 192.941406 163.414062 189.40625 163.414062 C 186.78125 163.414062 184.128906 162.832031 181.738281 161.730469 C 172.898438 157.664062 168.414062 146.730469 171.527344 136.847656 Z M 171.527344 136.847656 " fill-opacity="1" fill-rule="nonzero"/></g><g clip-path="url(#533f6761b5)"><path fill="#000000" d="M 246.695312 111.023438 C 245.6875 119.542969 244.871094 120.359375 236.347656 121.371094 C 236.367188 121.371094 236.382812 121.375 236.402344 121.375 C 244.875 122.382812 245.691406 123.214844 246.695312 131.71875 C 247.707031 123.195312 248.523438 122.378906 257.042969 121.371094 C 248.523438 120.359375 247.707031 119.542969 246.695312 111.023438 Z M 246.695312 111.023438 " fill-opacity="1" fill-rule="nonzero"/></g><g transform="matrix(1, 0, 0, 1, 96, 231)"><g clip-path="url(#e2b22b0138)"><g fill="#000000" fill-opacity="1"><g transform="translate(1.31546, 22.54223)"><g><path d="M 6.390625 -12.046875 C 8.046875 -12.046875 9.3125 -11.640625 10.1875 -10.828125 C 11.0625 -10.015625 11.5 -8.804688 11.5 -7.203125 L 11.5 0 L 9.453125 0 L 9.453125 -1.578125 C 9.097656 -1.023438 8.582031 -0.597656 7.90625 -0.296875 C 7.238281 -0.00390625 6.445312 0.140625 5.53125 0.140625 C 4.195312 0.140625 3.128906 -0.179688 2.328125 -0.828125 C 1.523438 -1.472656 1.125 -2.320312 1.125 -3.375 C 1.125 -4.425781 1.503906 -5.269531 2.265625 -5.90625 C 3.035156 -6.550781 4.253906 -6.875 5.921875 -6.875 L 9.34375 -6.875 L 9.34375 -7.296875 C 9.34375 -8.222656 9.070312 -8.929688 8.53125 -9.421875 C 7.988281 -9.921875 7.191406 -10.171875 6.140625 -10.171875 C 5.441406 -10.171875 4.753906 -10.054688 4.078125 -9.828125 C 3.398438 -9.597656 2.828125 -9.285156 2.359375 -8.890625 L 1.46875 -10.515625 C 2.082031 -11.003906 2.816406 -11.378906 3.671875 -11.640625 C 4.523438 -11.910156 5.429688 -12.046875 6.390625 -12.046875 Z M 5.90625 -1.53125 C 6.726562 -1.53125 7.4375 -1.710938 8.03125 -2.078125 C 8.632812 -2.453125 9.070312 -2.972656 9.34375 -3.640625 L 9.34375 -5.3125 L 6.015625 -5.3125 C 4.179688 -5.3125 3.265625 -4.695312 3.265625 -3.46875 C 3.265625 -2.863281 3.492188 -2.390625 3.953125 -2.046875 C 4.421875 -1.703125 5.070312 -1.53125 5.90625 -1.53125 Z M 5.90625 -1.53125 "/></g></g></g><g fill="#000000" fill-opacity="1"><g transform="translate(19.230871, 22.54223)"><g><path d="M 2.046875 -11.9375 L 4.203125 -11.9375 L 4.203125 0 L 2.046875 0 Z M 3.140625 -14.234375 C 2.710938 -14.234375 2.359375 -14.367188 2.078125 -14.640625 C 1.804688 -14.910156 1.671875 -15.238281 1.671875 -15.625 C 1.671875 -16.019531 1.804688 -16.351562 2.078125 -16.625 C 2.359375 -16.90625 2.710938 -17.046875 3.140625 -17.046875 C 3.554688 -17.046875 3.898438 -16.910156 4.171875 -16.640625 C 4.453125 -16.378906 4.59375 -16.054688 4.59375 -15.671875 C 4.59375 -15.265625 4.453125 -14.921875 4.171875 -14.640625 C 3.898438 -14.367188 3.554688 -14.234375 3.140625 -14.234375 Z M 3.140625 -14.234375 "/></g></g></g><g fill="#000000" fill-opacity="1"><g transform="translate(29.967319, 22.54223)"><g><path d="M 16.984375 -12.046875 C 18.484375 -12.046875 19.671875 -11.609375 20.546875 -10.734375 C 21.421875 -9.867188 21.859375 -8.582031 21.859375 -6.875 L 21.859375 0 L 19.703125 0 L 19.703125 -6.625 C 19.703125 -7.78125 19.4375 -8.648438 18.90625 -9.234375 C 18.375 -9.816406 17.609375 -10.109375 16.609375 -10.109375 C 15.515625 -10.109375 14.644531 -9.765625 14 -9.078125 C 13.351562 -8.398438 13.03125 -7.421875 13.03125 -6.140625 L 13.03125 0 L 10.875 0 L 10.875 -6.625 C 10.875 -7.78125 10.609375 -8.648438 10.078125 -9.234375 C 9.546875 -9.816406 8.785156 -10.109375 7.796875 -10.109375 C 6.691406 -10.109375 5.816406 -9.765625 5.171875 -9.078125 C 4.523438 -8.398438 4.203125 -7.421875 4.203125 -6.140625 L 4.203125 0 L 2.046875 0 L 2.046875 -11.9375 L 4.125 -11.9375 L 4.125 -10.15625 C 4.550781 -10.769531 5.117188 -11.238281 5.828125 -11.5625 C 6.535156 -11.882812 7.335938 -12.046875 8.234375 -12.046875 C 9.171875 -12.046875 10 -11.859375 10.71875 -11.484375 C 11.4375 -11.109375 11.992188 -10.5625 12.390625 -9.84375 C 12.835938 -10.53125 13.460938 -11.066406 14.265625 -11.453125 C 15.066406 -11.847656 15.972656 -12.046875 16.984375 -12.046875 Z M 16.984375 -12.046875 "/></g></g></g><g fill="#000000" fill-opacity="1"><g transform="translate(58.212329, 22.54223)"><g><path d="M 6.390625 -12.046875 C 8.046875 -12.046875 9.3125 -11.640625 10.1875 -10.828125 C 11.0625 -10.015625 11.5 -8.804688 11.5 -7.203125 L 11.5 0 L 9.453125 0 L 9.453125 -1.578125 C 9.097656 -1.023438 8.582031 -0.597656 7.90625 -0.296875 C 7.238281 -0.00390625 6.445312 0.140625 5.53125 0.140625 C 4.195312 0.140625 3.128906 -0.179688 2.328125 -0.828125 C 1.523438 -1.472656 1.125 -2.320312 1.125 -3.375 C 1.125 -4.425781 1.503906 -5.269531 2.265625 -5.90625 C 3.035156 -6.550781 4.253906 -6.875 5.921875 -6.875 L 9.34375 -6.875 L 9.34375 -7.296875 C 9.34375 -8.222656 9.070312 -8.929688 8.53125 -9.421875 C 7.988281 -9.921875 7.191406 -10.171875 6.140625 -10.171875 C 5.441406 -10.171875 4.753906 -10.054688 4.078125 -9.828125 C 3.398438 -9.597656 2.828125 -9.285156 2.359375 -8.890625 L 1.46875 -10.515625 C 2.082031 -11.003906 2.816406 -11.378906 3.671875 -11.640625 C 4.523438 -11.910156 5.429688 -12.046875 6.390625 -12.046875 Z M 5.90625 -1.53125 C 6.726562 -1.53125 7.4375 -1.710938 8.03125 -2.078125 C 8.632812 -2.453125 9.070312 -2.972656 9.34375 -3.640625 L 9.34375 -5.3125 L 6.015625 -5.3125 C 4.179688 -5.3125 3.265625 -4.695312 3.265625 -3.46875 C 3.265625 -2.863281 3.492188 -2.390625 3.953125 -2.046875 C 4.421875 -1.703125 5.070312 -1.53125 5.90625 -1.53125 Z M 5.90625 -1.53125 "/></g></g></g><g fill="#000000" fill-opacity="1"><g transform="translate(76.12774, 22.54223)"><g><path d="M 8.421875 -12.046875 C 9.929688 -12.046875 11.132812 -11.601562 12.03125 -10.71875 C 12.925781 -9.84375 13.375 -8.5625 13.375 -6.875 L 13.375 0 L 11.21875 0 L 11.21875 -6.625 C 11.21875 -7.78125 10.9375 -8.648438 10.375 -9.234375 C 9.820312 -9.816406 9.03125 -10.109375 8 -10.109375 C 6.820312 -10.109375 5.894531 -9.765625 5.21875 -9.078125 C 4.539062 -8.398438 4.203125 -7.421875 4.203125 -6.140625 L 4.203125 0 L 2.046875 0 L 2.046875 -11.9375 L 4.125 -11.9375 L 4.125 -10.125 C 4.550781 -10.75 5.132812 -11.222656 5.875 -11.546875 C 6.625 -11.878906 7.472656 -12.046875 8.421875 -12.046875 Z M 8.421875 -12.046875 "/></g></g></g><g fill="#000000" fill-opacity="1"><g transform="translate(95.91102, 22.54223)"><g/></g></g><g fill="#000000" fill-opacity="1"><g transform="translate(106.422415, 22.54223)"><g><path d="M 2.359375 -15.765625 L 4.609375 -15.765625 L 4.609375 0 L 2.359375 0 Z M 2.359375 -15.765625 "/></g></g></g><g fill="#000000" fill-opacity="1"><g transform="translate(117.856505, 22.54223)"><g><path d="M 13.3125 -11.9375 L 13.3125 4.375 L 11.140625 4.375 L 11.140625 -1.796875 C 10.648438 -1.171875 10.046875 -0.691406 9.328125 -0.359375 C 8.617188 -0.0234375 7.835938 0.140625 6.984375 0.140625 C 5.828125 0.140625 4.789062 -0.113281 3.875 -0.625 C 2.957031 -1.132812 2.238281 -1.851562 1.71875 -2.78125 C 1.207031 -3.707031 0.953125 -4.769531 0.953125 -5.96875 C 0.953125 -7.164062 1.207031 -8.222656 1.71875 -9.140625 C 2.238281 -10.054688 2.957031 -10.769531 3.875 -11.28125 C 4.789062 -11.789062 5.828125 -12.046875 6.984375 -12.046875 C 7.867188 -12.046875 8.675781 -11.875 9.40625 -11.53125 C 10.144531 -11.195312 10.753906 -10.703125 11.234375 -10.046875 L 11.234375 -11.9375 Z M 7.15625 -1.75 C 7.90625 -1.75 8.585938 -1.925781 9.203125 -2.28125 C 9.816406 -2.632812 10.296875 -3.128906 10.640625 -3.765625 C 10.992188 -4.410156 11.171875 -5.144531 11.171875 -5.96875 C 11.171875 -6.789062 10.992188 -7.515625 10.640625 -8.140625 C 10.285156 -8.773438 9.800781 -9.269531 9.1875 -9.625 C 8.582031 -9.976562 7.90625 -10.15625 7.15625 -10.15625 C 6.394531 -10.15625 5.707031 -9.984375 5.09375 -9.640625 C 4.488281 -9.296875 4.007812 -8.800781 3.65625 -8.15625 C 3.300781 -7.519531 3.125 -6.789062 3.125 -5.96875 C 3.125 -5.144531 3.300781 -4.410156 3.65625 -3.765625 C 4.007812 -3.128906 4.488281 -2.632812 5.09375 -2.28125 C 5.707031 -1.925781 6.394531 -1.75 7.15625 -1.75 Z M 7.15625 -1.75 "/></g></g></g><g fill="#000000" fill-opacity="1"><g transform="translate(137.66229, 22.54223)"><g><path d="M 8.375 -12.046875 C 9.53125 -12.046875 10.566406 -11.789062 11.484375 -11.28125 C 12.398438 -10.769531 13.113281 -10.054688 13.625 -9.140625 C 14.144531 -8.222656 14.40625 -7.164062 14.40625 -5.96875 C 14.40625 -4.769531 14.144531 -3.707031 13.625 -2.78125 C 13.113281 -1.851562 12.398438 -1.132812 11.484375 -0.625 C 10.566406 -0.113281 9.53125 0.140625 8.375 0.140625 C 7.488281 0.140625 6.675781 -0.03125 5.9375 -0.375 C 5.207031 -0.726562 4.601562 -1.234375 4.125 -1.890625 L 4.125 0 L 2.046875 0 L 2.046875 -16.703125 L 4.203125 -16.703125 L 4.203125 -10.125 C 4.691406 -10.757812 5.296875 -11.238281 6.015625 -11.5625 C 6.734375 -11.882812 7.519531 -12.046875 8.375 -12.046875 Z M 8.203125 -1.75 C 8.960938 -1.75 9.644531 -1.925781 10.25 -2.28125 C 10.863281 -2.632812 11.34375 -3.128906 11.6875 -3.765625 C 12.039062 -4.410156 12.21875 -5.144531 12.21875 -5.96875 C 12.21875 -6.789062 12.039062 -7.519531 11.6875 -8.15625 C 11.34375 -8.800781 10.863281 -9.296875 10.25 -9.640625 C 9.644531 -9.984375 8.960938 -10.15625 8.203125 -10.15625 C 7.441406 -10.15625 6.753906 -9.984375 6.140625 -9.640625 C 5.523438 -9.296875 5.046875 -8.800781 4.703125 -8.15625 C 4.359375 -7.519531 4.1875 -6.789062 4.1875 -5.96875 C 4.1875 -5.144531 4.359375 -4.410156 4.703125 -3.765625 C 5.046875 -3.128906 5.523438 -2.632812 6.140625 -2.28125 C 6.753906 -1.925781 7.441406 -1.75 8.203125 -1.75 Z M 8.203125 -1.75 "/></g></g></g><g fill="#000000" fill-opacity="1"><g transform="translate(157.468076, 22.54223)"><g><path d="M 6.390625 -12.046875 C 8.046875 -12.046875 9.3125 -11.640625 10.1875 -10.828125 C 11.0625 -10.015625 11.5 -8.804688 11.5 -7.203125 L 11.5 0 L 9.453125 0 L 9.453125 -1.578125 C 9.097656 -1.023438 8.582031 -0.597656 7.90625 -0.296875 C 7.238281 -0.00390625 6.445312 0.140625 5.53125 0.140625 C 4.195312 0.140625 3.128906 -0.179688 2.328125 -0.828125 C 1.523438 -1.472656 1.125 -2.320312 1.125 -3.375 C 1.125 -4.425781 1.503906 -5.269531 2.265625 -5.90625 C 3.035156 -6.550781 4.253906 -6.875 5.921875 -6.875 L 9.34375 -6.875 L 9.34375 -7.296875 C 9.34375 -8.222656 9.070312 -8.929688 8.53125 -9.421875 C 7.988281 -9.921875 7.191406 -10.171875 6.140625 -10.171875 C 5.441406 -10.171875 4.753906 -10.054688 4.078125 -9.828125 C 3.398438 -9.597656 2.828125 -9.285156 2.359375 -8.890625 L 1.46875 -10.515625 C 2.082031 -11.003906 2.816406 -11.378906 3.671875 -11.640625 C 4.523438 -11.910156 5.429688 -12.046875 6.390625 -12.046875 Z M 5.90625 -1.53125 C 6.726562 -1.53125 7.4375 -1.710938 8.03125 -2.078125 C 8.632812 -2.453125 9.070312 -2.972656 9.34375 -3.640625 L 9.34375 -5.3125 L 6.015625 -5.3125 C 4.179688 -5.3125 3.265625 -4.695312 3.265625 -3.46875 C 3.265625 -2.863281 3.492188 -2.390625 3.953125 -2.046875 C 4.421875 -1.703125 5.070312 -1.53125 5.90625 -1.53125 Z M 5.90625 -1.53125 "/></g></g></g><g fill="#000000" fill-opacity="1"><g transform="translate(175.383486, 22.54223)"><g><path d="M 2.046875 -16.703125 L 4.203125 -16.703125 L 4.203125 0 L 2.046875 0 Z M 2.046875 -16.703125 "/></g></g></g></g></g><g clip-path="url(#876e228c51)"><path fill="#000000" d="M 112.992188 199.066406 C 111.984375 207.585938 111.167969 208.402344 102.644531 209.414062 C 102.664062 209.414062 102.679688 209.417969 102.699219 209.417969 C 111.171875 210.425781 111.988281 211.257812 112.992188 219.761719 C 114 211.238281 114.820312 210.421875 123.339844 209.414062 C 114.820312 208.402344 114 207.585938 112.992188 199.066406 Z M 112.992188 199.066406 " fill-opacity="1" fill-rule="nonzero"/></g></svg>